name rise43.5482peak65.4966fall89.1036.mot
datacolumns 19
datarows 44
range 18.743260 18.814922
endheader
time	ground_force1_vx	ground_force1_vy	ground_force1_vz	ground_force1_px	ground_force1_py	ground_force1_pz	ground_force2_vx	ground_force2_vy	ground_force2_vz	ground_force2_px	ground_force2_py	ground_force2_pz	ground_torque1_x	ground_torque1_y	ground_torque1_z	ground_torque2_x	ground_torque2_y	ground_torque2_z	
18.743260	0.000000	0.000000	0.000000	0.000000	0.000000	0.000000	56.075987	806.121086	-50.495638	0.285294	0.000000	-0.096352	0.000000	0.000000	0.000000	0.000000	-14.368135	0.000000	
18.744935	0.000000	0.000000	0.000000	0.000000	0.000000	0.000000	55.328827	806.734746	-50.647583	0.284177	0.000000	-0.096436	0.000000	0.000000	0.000000	0.000000	-14.491216	0.000000	
18.746590	0.000000	0.000000	0.000000	0.000000	0.000000	0.000000	54.583623	807.206770	-50.795898	0.283052	0.000000	-0.096521	0.000000	0.000000	0.000000	0.000000	-14.612611	0.000000	
18.748260	0.000000	0.000000	0.000000	0.000000	0.000000	0.000000	53.840690	807.539376	-50.940081	0.281920	0.000000	-0.096608	0.000000	0.000000	0.000000	0.000000	-14.731992	0.000000	
18.749923	0.000000	0.000000	0.000000	0.000000	0.000000	0.000000	53.100319	807.734955	-51.079630	0.280779	0.000000	-0.096697	0.000000	0.000000	0.000000	0.000000	-14.849039	0.000000	
18.751589	0.000000	0.000000	0.000000	0.000000	0.000000	0.000000	52.362772	807.796060	-51.214044	0.279631	0.000000	-0.096787	0.000000	0.000000	0.000000	0.000000	-14.963438	0.000000	
18.753256	0.000000	0.000000	0.000000	0.000000	0.000000	0.000000	51.628284	807.725406	-51.342830	0.278474	0.000000	-0.096879	0.000000	0.000000	0.000000	0.000000	-15.074886	0.000000	
18.754940	0.000000	0.000000	0.000000	0.000000	0.000000	0.000000	50.897071	807.525867	-51.465501	0.277310	0.000000	-0.096972	0.000000	0.000000	0.000000	0.000000	-15.183091	0.000000	
18.756592	0.000000	0.000000	0.000000	0.000000	0.000000	0.000000	50.169324	807.200467	-51.581587	0.276138	0.000000	-0.097067	0.000000	0.000000	0.000000	0.000000	-15.287775	0.000000	
18.758257	0.000000	0.000000	0.000000	0.000000	0.000000	0.000000	49.445215	806.752379	-51.690631	0.274958	0.000000	-0.097162	0.000000	0.000000	0.000000	0.000000	-15.388675	0.000000	
18.759936	0.000000	0.000000	0.000000	0.000000	0.000000	0.000000	48.724898	806.184917	-51.792199	0.273772	0.000000	-0.097259	0.000000	0.000000	0.000000	0.000000	-15.485544	0.000000	
18.761588	0.000000	0.000000	0.000000	0.000000	0.000000	0.000000	48.008508	805.501531	-51.885877	0.272578	0.000000	-0.097358	0.000000	0.000000	0.000000	0.000000	-15.578152	0.000000	
18.763255	0.000000	0.000000	0.000000	0.000000	0.000000	0.000000	47.296168	804.705799	-51.971279	0.271378	0.000000	-0.097457	0.000000	0.000000	0.000000	0.000000	-15.666291	0.000000	
18.764930	0.000000	0.000000	0.000000	0.000000	0.000000	0.000000	46.587984	803.801426	-52.048047	0.270172	0.000000	-0.097557	0.000000	0.000000	0.000000	0.000000	-15.749771	0.000000	
18.766592	0.000000	0.000000	0.000000	0.000000	0.000000	0.000000	45.884052	802.792229	-52.115853	0.268961	0.000000	-0.097657	0.000000	0.000000	0.000000	0.000000	-15.828423	0.000000	
18.768260	0.000000	0.000000	0.000000	0.000000	0.000000	0.000000	45.184456	801.682136	-52.174402	0.267744	0.000000	-0.097758	0.000000	0.000000	0.000000	0.000000	-15.902100	0.000000	
18.769926	0.000000	0.000000	0.000000	0.000000	0.000000	0.000000	44.489271	800.475175	-52.223437	0.266523	0.000000	-0.097860	0.000000	0.000000	0.000000	0.000000	-15.970681	0.000000	
18.771595	0.000000	0.000000	0.000000	0.000000	0.000000	0.000000	43.798563	799.175470	-52.262735	0.265298	0.000000	-0.097962	0.000000	0.000000	0.000000	0.000000	-16.034063	0.000000	
18.773257	0.000000	0.000000	0.000000	0.000000	0.000000	0.000000	43.112393	797.787227	-52.292113	0.264070	0.000000	-0.098065	0.000000	0.000000	0.000000	0.000000	-16.092170	0.000000	
18.774922	0.000000	0.000000	0.000000	0.000000	0.000000	0.000000	42.430812	796.314732	-52.311427	0.262840	0.000000	-0.098167	0.000000	0.000000	0.000000	0.000000	-16.144949	0.000000	
18.776593	0.000000	0.000000	0.000000	0.000000	0.000000	0.000000	41.753871	794.762338	-52.320574	0.261609	0.000000	-0.098269	0.000000	0.000000	0.000000	0.000000	-16.192370	0.000000	
18.778253	0.000000	0.000000	0.000000	0.000000	0.000000	0.000000	41.081615	793.134460	-52.319492	0.260376	0.000000	-0.098371	0.000000	0.000000	0.000000	0.000000	-16.234426	0.000000	
18.779925	0.000000	0.000000	0.000000	0.000000	0.000000	0.000000	40.414086	791.435561	-52.308162	0.259145	0.000000	-0.098473	0.000000	0.000000	0.000000	0.000000	-16.271134	0.000000	
18.781592	0.000000	0.000000	0.000000	0.000000	0.000000	0.000000	39.751324	789.670152	-52.286604	0.257914	0.000000	-0.098574	0.000000	0.000000	0.000000	0.000000	-16.302534	0.000000	
18.783259	0.000000	0.000000	0.000000	0.000000	0.000000	0.000000	39.093369	787.842772	-52.254883	0.256685	0.000000	-0.098675	0.000000	0.000000	0.000000	0.000000	-16.328686	0.000000	
18.784937	0.000000	0.000000	0.000000	0.000000	0.000000	0.000000	38.440258	785.957988	-52.213103	0.255460	0.000000	-0.098775	0.000000	0.000000	0.000000	0.000000	-16.349673	0.000000	
18.786592	0.000000	0.000000	0.000000	0.000000	0.000000	0.000000	37.792030	784.020382	-52.161408	0.254239	0.000000	-0.098874	0.000000	0.000000	0.000000	0.000000	-16.365598	0.000000	
18.788254	0.000000	0.000000	0.000000	0.000000	0.000000	0.000000	37.148724	782.034543	-52.099984	0.253022	0.000000	-0.098972	0.000000	0.000000	0.000000	0.000000	-16.376582	0.000000	
18.789947	0.000000	0.000000	0.000000	0.000000	0.000000	0.000000	36.510377	780.005054	-52.029051	0.251812	0.000000	-0.099069	0.000000	0.000000	0.000000	0.000000	-16.382765	0.000000	
18.791589	0.000000	0.000000	0.000000	0.000000	0.000000	0.000000	35.877031	777.936492	-51.948869	0.250609	0.000000	-0.099165	0.000000	0.000000	0.000000	0.000000	-16.384305	0.000000	
18.793259	0.000000	0.000000	0.000000	0.000000	0.000000	0.000000	35.248726	775.833410	-51.859731	0.249414	0.000000	-0.099259	0.000000	0.000000	0.000000	0.000000	-16.381374	0.000000	
18.794934	0.000000	0.000000	0.000000	0.000000	0.000000	0.000000	34.625502	773.700333	-51.761965	0.248229	0.000000	-0.099352	0.000000	0.000000	0.000000	0.000000	-16.374158	0.000000	
18.796588	0.000000	0.000000	0.000000	0.000000	0.000000	0.000000	34.007403	771.541748	-51.655926	0.247053	0.000000	-0.099443	0.000000	0.000000	0.000000	0.000000	-16.362858	0.000000	
18.798256	0.000000	0.000000	0.000000	0.000000	0.000000	0.000000	33.394472	769.362096	-51.542001	0.245889	0.000000	-0.099533	0.000000	0.000000	0.000000	0.000000	-16.347686	0.000000	
18.799929	0.000000	0.000000	0.000000	0.000000	0.000000	0.000000	32.786751	767.165761	-51.420601	0.244736	0.000000	-0.099620	0.000000	0.000000	0.000000	0.000000	-16.328862	0.000000	
18.801589	0.000000	0.000000	0.000000	0.000000	0.000000	0.000000	32.184283	764.957067	-51.292161	0.243597	0.000000	-0.099706	0.000000	0.000000	0.000000	0.000000	-16.306618	0.000000	
18.803263	0.000000	0.000000	0.000000	0.000000	0.000000	0.000000	31.587113	762.740265	-51.157135	0.242471	0.000000	-0.099789	0.000000	0.000000	0.000000	0.000000	-16.281190	0.000000	
18.804944	0.000000	0.000000	0.000000	0.000000	0.000000	0.000000	30.995280	760.519527	-51.015996	0.241360	0.000000	-0.099871	0.000000	0.000000	0.000000	0.000000	-16.252822	0.000000	
18.806592	0.000000	0.000000	0.000000	0.000000	0.000000	0.000000	30.408827	758.298940	-50.869232	0.240264	0.000000	-0.099950	0.000000	0.000000	0.000000	0.000000	-16.221762	0.000000	
18.808257	0.000000	0.000000	0.000000	0.000000	0.000000	0.000000	29.827791	756.082496	-50.717343	0.239185	0.000000	-0.100027	0.000000	0.000000	0.000000	0.000000	-16.188260	0.000000	
18.809937	0.000000	0.000000	0.000000	0.000000	0.000000	0.000000	29.252207	753.874086	-50.560837	0.238122	0.000000	-0.100101	0.000000	0.000000	0.000000	0.000000	-16.152570	0.000000	
18.811593	0.000000	0.000000	0.000000	0.000000	0.000000	0.000000	28.682108	751.677493	-50.400227	0.237076	0.000000	-0.100173	0.000000	0.000000	0.000000	0.000000	-16.114944	0.000000	
18.813257	0.000000	0.000000	0.000000	0.000000	0.000000	0.000000	28.117522	749.496388	-50.236031	0.236049	0.000000	-0.100243	0.000000	0.000000	0.000000	0.000000	-16.075634	0.000000	
18.814922	0.000000	0.000000	0.000000	0.000000	0.000000	0.000000	27.558474	747.334318	-50.068767	0.235040	0.000000	-0.100310	0.000000	0.000000	0.000000	0.000000	-16.034890	0.000000	
